 <svg version="1.0" xmlns="http://www.w3.org/2000/svg" width="300.000000pt" height="193.000000pt" viewBox="0 0 300.000000 193.000000" preserveAspectRatio="xMidYMid meet">  <g transform="translate(0.000000,193.000000) scale(0.100000,-0.100000)" fill="#3e5759" stroke="none"> <path d="M908 1622 l-768 -2 0 -770 0 -770 773 2 772 3 0 149 c0 111 -3 150 -12 153 -10 4 -13 -28 -13 -136 l0 -141 -745 0 -745 0 0 745 0 745 745 0 745 0 0 -140 c0 -118 2 -140 15 -140 13 0 15 23 15 149 0 83 -3 151 -7 153 -5 2 -353 2 -775 0z"></path> <path d="M950 856 l0 -286 38 0 37 0 -3 240 c-2 137 1 240 6 240 27 0 51 -64 135 -365 13 -47 16 -50 50 -53 40 -4 33 -20 107 237 44 151 56 181 78 181 11 0 13 -46 10 -240 l-3 -240 38 0 37 0 0 286 0 287 -45 -6 c-105 -15 -126 -45 -180 -253 -20 -76 -38 -140 -40 -142 -5 -6 -5 -8 -45 153 -47 190 -74 228 -174 241 l-46 7 0 -287z m75 233 c8 -13 -27 -41 -38 -30 -11 11 3 41 18 41 8 0 17 -5 20 -11z m415 -20 c0 -23 -15 -25 -24 -4 -3 8 -13 15 -23 16 -12 1 -10 3 7 8 31 10 40 5 40 -20z m-206 -348 c9 -14 -4 -41 -20 -41 -8 0 -14 4 -14 9 0 5 -3 16 -6 25 -4 11 0 16 14 16 12 0 23 -4 26 -9z"></path> <path d="M1633 1109 c-46 -17 -20 -84 29 -77 18 2 24 10 26 35 4 37 -20 56 -55 42z"></path> <path d="M1577 943 c-2 -10 -8 -26 -12 -37 -7 -16 -4 -18 23 -14 l32 5 0 -164 0 -163 38 0 37 0 0 195 0 195 -56 0 c-45 0 -58 -3 -62 -17z"></path> <path d="M1780 925 l0 -34 108 -3 107 -3 -96 -96 c-80 -79 -98 -103 -107 -142 -21 -82 -29 -77 133 -77 l145 0 0 35 0 35 -105 0 c-58 0 -105 4 -105 8 0 5 36 44 80 87 102 98 119 122 126 179 l7 46 -147 0 -146 0 0 -35z m241 -23 c-4 -10 -6 -24 -4 -32 4 -13 3 -13 -6 0 -5 8 -7 18 -5 22 3 4 1 8 -5 8 -6 0 -8 6 -5 14 3 8 12 12 20 9 9 -3 11 -10 5 -21z"></path> <path d="M2170 926 l0 -36 84 0 c46 0 92 -3 101 -6 31 -12 45 -59 45 -156 l0 -93 -82 5 c-46 3 -89 9 -95 13 -23 15 -15 65 12 83 25 16 80 16 118 0 14 -7 17 -3 17 27 0 41 -11 47 -81 47 -118 0 -185 -91 -132 -181 26 -44 77 -59 203 -59 l110 0 0 138 c0 213 -24 244 -195 250 l-105 4 0 -36z"></path> <path d="M2560 766 l0 -196 41 0 41 0 -3 162 -3 162 64 -3 c35 -1 72 -7 82 -12 29 -15 40 -77 36 -197 l-3 -112 38 0 39 0 -4 148 c-5 220 -17 233 -210 240 l-118 4 0 -196z"></path> </g> </svg> 